<?xml version="1.0" encoding="utf-8"?>
<!-- Generator: Adobe Illustrator 16.0.0, SVG Export Plug-In . SVG Version: 6.00 Build 0)  -->
<!DOCTYPE svg PUBLIC "-//W3C//DTD SVG 1.1//EN" "http://www.w3.org/Graphics/SVG/1.1/DTD/svg11.dtd">
<svg version="1.1" id="Capa_1" xmlns="http://www.w3.org/2000/svg" xmlns:xlink="http://www.w3.org/1999/xlink" x="0px" y="0px"
	 width="300.167px" height="49.833px" viewBox="0 0 300.167 49.833" enable-background="new 0 0 300.167 49.833"
	 xml:space="preserve">
<g>
	<polygon fill="#F0F7F8" points="22.802,20.993 7.24,3.665 3.5,3.665 3.5,46.221 13.268,46.221 13.268,24.889 22.802,34.895 
		32.334,24.896 32.282,46.221 42.049,46.221 42.049,3.665 38.366,3.665 	"/>
	<path fill="#F0F7F8" d="M68.178,3.609c-6.666,0-12.271,2.339-16.211,6.765c-3.487,3.917-5.406,9.182-5.406,14.824
		c0,10.397,6.763,21.588,21.617,21.588c6.665,0,12.271-2.339,16.21-6.765c3.486-3.917,5.405-9.182,5.405-14.823
		C89.793,14.799,83.031,3.609,68.178,3.609z M76.658,33.227c-2.045,2.37-4.978,3.623-8.479,3.623
		c-7.772,0-11.313-6.056-11.313-11.681c0-3.078,1.006-5.94,2.834-8.059c2.043-2.371,4.977-3.623,8.479-3.623
		c7.772,0,11.313,6.055,11.313,11.68C79.492,28.247,78.485,31.109,76.658,33.227z"/>
	<path fill="#F0F7F8" d="M124.516,15.251c-0.719-5.059-4.442-10.966-12.563-10.966H95.247v41.936h9.654V30.813h2.624l8.127,15.408
		h10.976l-9.564-16.994C122.947,26.975,125.282,20.629,124.516,15.251z M113.683,20.269c-0.6,0.741-1.43,1.117-2.464,1.117h-6.318
		v-7.447h6.318c2.277,0,3.314,1.93,3.314,3.724C114.534,18.651,114.222,19.6,113.683,20.269z"/>
	<path fill="#F0F7F8" d="M147.153,4.341h-16.651v41.88h9.654V30.813h6.997c8.23,0,12.537-6.667,12.537-13.253
		c0-3.443-1.107-6.658-3.118-9.053C154.283,5.781,151.025,4.341,147.153,4.341z M148.906,20.273
		c-0.591,0.738-1.409,1.113-2.43,1.113h-6.32v-7.447h6.32c2.248,0,3.271,1.93,3.271,3.724
		C149.748,18.652,149.439,19.603,148.906,20.273z"/>
	<polygon fill="#F0F7F8" points="187.792,20.425 175.037,20.425 175.037,4.286 163.875,4.286 163.875,46.221 175.037,46.221 
		175.037,30.081 187.792,30.081 187.792,46.221 198.956,46.221 198.956,4.286 187.792,4.286 	"/>
	<rect x="205.337" y="4.286" fill="#F0F7F8" width="9.654" height="41.936"/>
	<polygon fill="#F0F7F8" points="256.835,3.505 243.496,3.505 232.468,18.49 232.468,3.505 221.175,3.505 221.175,46.75 
		232.468,46.75 232.468,31.92 244.19,46.75 258.25,46.75 240.49,24.851 	"/>
	<path fill="#F0F7F8" d="M278.822,2.95h-1.924l-17.846,43.934h10.991l1.599-4.402h12.443l1.658,4.402h10.923L278.822,2.95z
		 M275.186,33.243l2.69-7.474l2.611,7.474H275.186z"/>
</g>
</svg>
